<svg width="22" height="22" viewBox="0 0 22 22" fill="none" xmlns="http://www.w3.org/2000/svg">
<path d="M2.75065 2.75H19.2507C19.4938 2.75 19.7269 2.84658 19.8988 3.01849C20.0707 3.19039 20.1673 3.42355 20.1673 3.66667V18.3333C20.1673 18.5764 20.0707 18.8096 19.8988 18.9815C19.7269 19.1534 19.4938 19.25 19.2507 19.25H2.75065C2.50754 19.25 2.27438 19.1534 2.10247 18.9815C1.93056 18.8096 1.83398 18.5764 1.83398 18.3333V3.66667C1.83398 3.42355 1.93056 3.19039 2.10247 3.01849C2.27438 2.84658 2.50754 2.75 2.75065 2.75ZM18.334 11H3.66732V17.4167H18.334V11ZM18.334 7.33333V4.58333H3.66732V7.33333H18.334Z" fill="#1A191E"/>
</svg>
