<svg width="22" height="22" viewBox="0 0 22 22" fill="none" xmlns="http://www.w3.org/2000/svg">
<path d="M19.25 18.3331C19.25 18.5762 19.1534 18.8094 18.9815 18.9813C18.8096 19.1532 18.5764 19.2498 18.3333 19.2498H3.66667C3.42355 19.2498 3.19039 19.1532 3.01849 18.9813C2.84658 18.8094 2.75 18.5762 2.75 18.3331V8.69893C2.7499 8.55924 2.78173 8.42138 2.84306 8.29587C2.90438 8.17036 2.99358 8.06053 3.10383 7.97476L10.4372 2.27126C10.5981 2.14609 10.7961 2.07812 11 2.07812C11.2039 2.07812 11.4019 2.14609 11.5628 2.27126L18.8962 7.97476C19.0064 8.06053 19.0956 8.17036 19.1569 8.29587C19.2183 8.42138 19.2501 8.55924 19.25 8.69893V18.3331ZM17.4167 17.4164V9.14626L11 4.15593L4.58333 9.14626V17.4164H17.4167Z" fill="#1A191E"/>
</svg>
