<svg width="22" height="22" viewBox="0 0 22 22" fill="none" xmlns="http://www.w3.org/2000/svg">
<path d="M11.0007 20.1673C5.9379 20.1673 1.83398 16.0634 1.83398 11.0007C1.83398 5.9379 5.9379 1.83398 11.0007 1.83398C16.0634 1.83398 20.1673 5.9379 20.1673 11.0007C20.1673 16.0634 16.0634 20.1673 11.0007 20.1673ZM11.0007 18.334C12.9456 18.334 14.8108 17.5614 16.1861 16.1861C17.5614 14.8108 18.334 12.9456 18.334 11.0007C18.334 9.05573 17.5614 7.19047 16.1861 5.8152C14.8108 4.43993 12.9456 3.66732 11.0007 3.66732C9.05573 3.66732 7.19047 4.43993 5.8152 5.8152C4.43993 7.19047 3.66732 9.05573 3.66732 11.0007C3.66732 12.9456 4.43993 14.8108 5.8152 16.1861C7.19047 17.5614 9.05573 18.334 11.0007 18.334ZM7.79232 12.834H12.834C12.9555 12.834 13.0721 12.7857 13.1581 12.6997C13.244 12.6138 13.2923 12.4972 13.2923 12.3757C13.2923 12.2541 13.244 12.1375 13.1581 12.0516C13.0721 11.9656 12.9555 11.9173 12.834 11.9173H9.16732C8.55953 11.9173 7.97664 11.6759 7.54686 11.2461C7.11709 10.8163 6.87565 10.2334 6.87565 9.62565C6.87565 9.01786 7.11709 8.43497 7.54686 8.0052C7.97664 7.57543 8.55953 7.33398 9.16732 7.33398H10.084V5.50065H11.9173V7.33398H14.209V9.16732H9.16732C9.04576 9.16732 8.92918 9.21561 8.84323 9.30156C8.75727 9.38751 8.70898 9.50409 8.70898 9.62565C8.70898 9.74721 8.75727 9.86379 8.84323 9.94974C8.92918 10.0357 9.04576 10.084 9.16732 10.084H12.834C13.4418 10.084 14.0247 10.3254 14.4544 10.7552C14.8842 11.185 15.1257 11.7679 15.1257 12.3757C15.1257 12.9834 14.8842 13.5663 14.4544 13.9961C14.0247 14.4259 13.4418 14.6673 12.834 14.6673H11.9173V16.5007H10.084V14.6673H7.79232V12.834Z" fill="#1A191E"/>
</svg>
