<svg width="28" height="28" viewBox="0 0 28 28" fill="none" xmlns="http://www.w3.org/2000/svg">
<path d="M12.8333 2.33398L21.3477 4.99398C21.5851 5.06812 21.7927 5.21621 21.94 5.41665C22.0874 5.61709 22.1668 5.85938 22.1667 6.10815V8.16732H24.5C24.8094 8.16732 25.1062 8.29023 25.325 8.50903C25.5438 8.72782 25.6667 9.02456 25.6667 9.33398V11.6673H10.5V9.33398C10.5 9.02456 10.6229 8.72782 10.8417 8.50903C11.0605 8.29023 11.3572 8.16732 11.6667 8.16732H19.8333V6.96565L12.8333 4.77698L5.83333 6.96565V15.6037C5.83317 16.3179 5.99696 17.0227 6.31209 17.6637C6.62723 18.3047 7.08529 18.8648 7.651 19.3008L7.8715 19.4595L12.8333 22.844L17.2457 19.834H11.6667C11.3572 19.834 11.0605 19.7111 10.8417 19.4923C10.6229 19.2735 10.5 18.9767 10.5 18.6673V14.0007H25.6667V18.6673C25.6667 18.9767 25.5438 19.2735 25.325 19.4923C25.1062 19.7111 24.8094 19.834 24.5 19.834L20.7433 19.8351C20.2918 20.4301 19.7435 20.9552 19.11 21.3868L12.8333 25.6673L6.55667 21.388C5.61461 20.7457 4.84371 19.883 4.311 18.8749C3.77828 17.8668 3.49988 16.7438 3.5 15.6037V6.10815C3.50014 5.85958 3.57967 5.61756 3.72699 5.41735C3.87431 5.21714 4.08173 5.06922 4.319 4.99515L12.8333 2.33398Z" fill="#5BB5A2"/>
</svg>
