<svg width="22" height="22" viewBox="0 0 22 22" fill="none" xmlns="http://www.w3.org/2000/svg">
<path d="M18.3327 20.166H16.4993V18.3327C16.4993 17.6033 16.2096 16.9039 15.6939 16.3881C15.1782 15.8724 14.4787 15.5827 13.7493 15.5827H8.24935C7.52 15.5827 6.82053 15.8724 6.30481 16.3881C5.78908 16.9039 5.49935 17.6033 5.49935 18.3327V20.166H3.66602V18.3327C3.66602 17.1171 4.1489 15.9513 5.00844 15.0918C5.86798 14.2322 7.03377 13.7493 8.24935 13.7493H13.7493C14.9649 13.7493 16.1307 14.2322 16.9903 15.0918C17.8498 15.9513 18.3327 17.1171 18.3327 18.3327V20.166ZM10.9993 11.916C10.2771 11.916 9.56188 11.7738 8.89459 11.4974C8.2273 11.221 7.62098 10.8158 7.11026 10.3051C6.59954 9.79438 6.19441 9.18807 5.91801 8.52077C5.64161 7.85348 5.49935 7.13829 5.49935 6.41602C5.49935 5.69375 5.64161 4.97855 5.91801 4.31126C6.19441 3.64397 6.59954 3.03765 7.11026 2.52693C7.62098 2.01621 8.2273 1.61108 8.89459 1.33468C9.56188 1.05828 10.2771 0.916016 10.9993 0.916016C12.458 0.916016 13.857 1.49548 14.8884 2.52693C15.9199 3.55838 16.4993 4.95732 16.4993 6.41602C16.4993 7.87471 15.9199 9.27365 14.8884 10.3051C13.857 11.3366 12.458 11.916 10.9993 11.916ZM10.9993 10.0827C11.9718 10.0827 12.9044 9.69637 13.5921 9.00874C14.2797 8.32111 14.666 7.38848 14.666 6.41602C14.666 5.44356 14.2797 4.51092 13.5921 3.82329C12.9044 3.13566 11.9718 2.74935 10.9993 2.74935C10.0269 2.74935 9.09426 3.13566 8.40662 3.82329C7.71899 4.51092 7.33268 5.44356 7.33268 6.41602C7.33268 7.38848 7.71899 8.32111 8.40662 9.00874C9.09426 9.69637 10.0269 10.0827 10.9993 10.0827Z" fill="#1A191E"/>
</svg>
